# xmcd CD database file
#
# Track frame offsets:
#	150
#	19064
#	31897
#	46130
#
# Disc length: 824 seconds
#
# Revision: 0
# Processed by: cddbd v1.4PL0 Copyright (c) Steve Scherf et al.
# Submitted via: CDex 1.40Release
#
DISCID=24033604
DTITLE=Radiophobia - Disposed
DYEAR=2003
DGENRE=Country
TTITLE0=Again
TTITLE1=Disposable Music
TTITLE2=I Know
TTITLE3=Hallucinate
EXTD=YEAR: 2003 ID3G: 2
EXTT0=
EXTT1=
EXTT2=
EXTT3=
PLAYORDER=
